<svg width="250" height="50" viewBox="0 0 320 51.19846367355516" class="css-1j8o68f"><defs id="SvgjsDefs2413"></defs><g id="SvgjsG2414" transform="matrix(1.0583255489551062,0,0,1.0583255489551062,-2.7918623056061977,-27.479847187454155)" fill="#ffffff"><path xmlns="http://www.w3.org/2000/svg" d="M3.094,58.528c0.456,4.929,3.516,7.94,7.669,9.765c4.15,1.826,9.943,1.415,13.866,1.417  c3.927-0.002,6.525-1.233,6.525-1.233s3.991,0.252,8.859,0.436c0.043,0.113,0.426,0.877,1.974,0.973  c1.419,0.087,2.07-0.626,2.231-0.837c0.33,0.008,0.661,0.018,0.992,0.024c6.839,0.135,20.843-0.233,20.933-0.231  c-0.819,1.597-1.05,4.198-1.044,4.242c1.687,0.183,3.921-3.288,3.832-3.331c6.158,0.733,10.676,0.686,13.322,0.504  c2.642-0.185,6.611-0.326,10.174-4.291c4.053-4.511,4.696-12.369,4.699-15.958l0,0c0.002,0,0-0.006,0-0.006s-0.003-0.008,0-0.008  l0,0c-0.003-3.592-0.646-11.447-4.702-15.961c-3.56-3.957-7.529-4.104-10.171-4.289c-2.649-0.181-7.164-0.227-13.32,0.504  c0.09-0.047-2.147-3.51-3.837-3.331c0.003,0.048,0.23,2.649,1.045,4.24c-0.088,0.005-14.092-0.366-20.934-0.227  c-0.326,0.01-0.655,0.015-0.979,0.022c-0.156-0.203-0.804-0.933-2.238-0.842c-1.599,0.098-1.959,0.909-1.983,0.975  c-4.864,0.187-8.853,0.438-8.853,0.438s-2.599-1.231-6.525-1.231c-3.921,0.003-9.716-0.41-13.868,1.419  c-4.149,1.821-7.214,4.83-7.669,9.761c-0.454,4.913-0.451,5.708-0.451,8.518c0.002,0.005,0,0.008-0.003,0.011  c0.003,0.005,0.003,0.013,0.003,0.013C2.641,52.821,2.643,53.616,3.094,58.528z M94.29,48.917c0.239,0,0.439,0.486,0.439,1.076  c-0.002,0.596-0.2,1.075-0.439,1.075c-0.241,0-0.43-0.479-0.428-1.075C93.857,49.4,94.049,48.917,94.29,48.917z M88.202,32.394  c0.478-0.345,1.606,0.402,2.521,1.673c0.909,1.265,1.257,2.581,0.782,2.925c-0.489,0.344-1.613-0.403-2.526-1.674  C88.069,34.049,87.717,32.738,88.202,32.394z M88.979,64.658c0.913-1.266,2.042-2.014,2.523-1.672  c0.478,0.349,0.128,1.654-0.782,2.925c-0.912,1.271-2.043,2.013-2.517,1.672C87.719,67.236,88.069,65.929,88.979,64.658z   M31.244,67.667l-10.445-1.275c0,0,5.425-0.742,9.488-1.105c4.057-0.364,20.259-0.093,24.045,0.365  c3.516,0.417,16.238,2.019,16.238,2.019C61.218,68.046,31.244,67.667,31.244,67.667z M73.72,33.101l0.079,0.039  c3.111,1.567,5.377,4.502,6.722,8.717c1.156,3.644,1.257,7.15,1.257,8.137c-0.003,0.989-0.098,4.495-1.254,8.14  c-1.348,4.216-3.61,7.148-6.725,8.718l-0.077,0.034l-0.01-0.037c-0.643-0.127-9.545-1.323-14.279-1.955l-0.089-0.011l0.031-0.079  c0.012-0.014,0.556-1.446,1.095-3.974c0.496-2.334,1.089-6.112,1.089-10.836c0-4.726-0.59-8.505-1.089-10.84  c-0.542-2.528-1.083-3.953-1.095-3.968l-0.031-0.078l0.086-0.015c4.737-0.628,13.642-1.826,14.279-1.948L73.72,33.101z   M31.244,32.31c0,0,29.971-0.379,39.326,0c0,0-12.729,1.595-16.241,2.021c-3.783,0.457-19.98,0.725-24.044,0.361  c-4.06-0.359-9.486-1.107-9.486-1.107L31.244,32.31z M13.464,37.195l0.013-0.013l0.017-0.004c0,0,3.537-0.143,7.07-0.284  c1.769-0.07,3.536-0.146,4.863-0.192c1.187-0.042,1.747-0.062,2.021-0.062c0.072-0.003,0.125-0.006,0.16,0.002l0.012-0.005  l0.002,0.005c0.08,0.007,0.083,0.022,0.088,0.048l0.012,0.057l-0.037,0.008c-1.688,3.172-1.706,13.132-1.704,13.233  c-0.002,0.103,0.016,10.063,1.709,13.232l0.03,0.012l-0.008,0.055c-0.007,0.022-0.01,0.04-0.09,0.05v0.006l-0.014-0.008  c-0.183,0.012-0.693-0.005-2.181-0.06c-1.325-0.048-3.095-0.119-4.861-0.192c-3.535-0.142-7.072-0.284-7.072-0.284l-0.021-0.008  c-0.154-0.058-3.764-1.477-3.786-12.083l0,0v-0.111C9.674,47.397,10.01,39.674,13.464,37.195z M8.936,52.829H8.341v-5.681h0.595  V52.829z M6.486,36.053c0.639-1.167,1.506-1.915,1.95-1.675c0.442,0.242,0.283,1.38-0.354,2.546  c-0.631,1.166-1.508,1.915-1.948,1.674C5.692,38.362,5.85,37.218,6.486,36.053z M6.134,61.38c0.438-0.241,1.314,0.508,1.948,1.674  c0.641,1.162,0.799,2.307,0.354,2.549c-0.442,0.236-1.313-0.512-1.952-1.678C5.853,62.759,5.692,61.615,6.134,61.38z"></path></g><g id="SvgjsG2415" transform="matrix(0.40485739921128916,0,0,0.40485739921128916,118.84360663256695,-4.62683139038518)" fill="#e9c79e"><path d="M2.8571 40 l0 -24.286 l4.2857 -4.2857 l16.571 0 l4.2857 4.2857 l0 24.286 l-7.4286 0 l0 -8 l-10.286 0 l0 8 l-7.4286 0 z M10.286 25.714 l10.286 0 l0 -8 l-10.286 0 l0 8 z M32.85714285714286 40 l0 -5.7143 l2.2857 0 l0 -17.143 l-2.2857 0 l0 -5.7143 l12 0 l0 5.7143 l-2.2857 0 l0 17.143 l2.2857 0 l0 5.7143 l-12 0 z M75.42814285714286 15.713999999999999 l0 10 l-4.2857 4.2857 l4.2857 6.5714 l0 3.4286 l-6.8571 0 l-5.9429 -9.7143 l-5.4857 0 l0 9.7143 l-7.4286 0 l0 -28.571 l21.429 0 z M68.00014285714286 24 l0 -6.2857 l-10.857 0 l0 6.2857 l10.857 0 z M81.1428142857143 40 l0 -28.571 l20.857 0 l4.2857 4.2857 l0 12 l-4.2857 4.2857 l-13.429 0 l0 8 l-7.4286 0 z M88.5717142857143 25.714 l10.286 0 l0 -8 l-10.286 0 l0 8 z M132.85685714285717 11.428999999999998 l4.2857 4.2857 l0 20 l-4.2857 4.2857 l-16.571 0 l-4.2857 -4.2857 l0 -20 l4.2857 -4.2857 l16.571 0 z M129.71385714285717 33.7143 l0 -16 l-10.286 0 l0 16 l10.286 0 z M168.571 15.713999999999999 l0 10 l-4.2857 4.2857 l4.2857 6.5714 l0 3.4286 l-6.8571 0 l-5.9429 -9.7143 l-5.4857 0 l0 9.7143 l-7.4286 0 l0 -28.571 l21.429 0 z M161.143 24 l0 -6.2857 l-10.857 0 l0 6.2857 l10.857 0 z M172.2857114285714 17.714 l0 -6.2857 l24.286 0 l0 6.2857 l-8.4571 0 l0 22.286 l-7.4286 0 l0 -22.286 l-8.4 0 z M240.2852857142857 15.713999999999999 l0 6.9714 l-3.0286 3.0286 l3.0286 3.0286 l0 6.9714 l-4.2857 4.2857 l-21.429 0 l0 -28.571 l21.429 0 z M232.8572857142857 22.571 l0 -4.8571 l-10.857 0 l0 4.8571 l10.857 0 z M232.8572857142857 33.7143 l0 -4.8571 l-10.857 0 l0 4.8571 l10.857 0 z M245.9999571428571 35.7143 l0 -24.286 l7.4286 0 l0 22.286 l15.429 0 l0 6.2857 l-18.571 0 z M273.1428142857143 40 l0 -24.286 l4.2857 -4.2857 l16.571 0 l4.2857 4.2857 l0 24.286 l-7.4286 0 l0 -8 l-10.286 0 l0 8 l-7.4286 0 z M280.5717142857143 25.714 l10.286 0 l0 -8 l-10.286 0 l0 8 z M320.5718571428571 17.714 l-9.1429 0 l0 16 l9.1429 0 l2.2857 -2.2857 l5.4286 0 l0 4.2857 l-4.2857 4.2857 l-15.714 0 l-4.2857 -4.2857 l0 -20 l4.2857 -4.2857 l15.714 0 l4.2857 4.2857 l0 4.2857 l-5.4286 0 z M359.71385714285714 11.428999999999998 l0 3.4286 l-6.6857 10.857 l6.6857 10.857 l0 3.4286 l-6.8571 0 l-6.5143 -11.143 l-4.9143 0 l0 11.143 l-7.4286 0 l0 -28.571 l7.4286 0 l0 11.143 l4.9143 0 l6.5143 -11.143 l6.8571 0 z M395.4289999999999 17.714 l-9.1429 0 l0 16 l9.1429 0 l2.2857 -2.2857 l5.4286 0 l0 4.2857 l-4.2857 4.2857 l-15.714 0 l-4.2857 -4.2857 l0 -20 l4.2857 -4.2857 l15.714 0 l4.2857 4.2857 l0 4.2857 l-5.4286 0 z M408.85709999999995 40 l0 -24.286 l4.2857 -4.2857 l16.571 0 l4.2857 4.2857 l0 24.286 l-7.4286 0 l0 -8 l-10.286 0 l0 8 l-7.4286 0 z M416.28599999999994 25.714 l10.286 0 l0 -8 l-10.286 0 l0 8 z M465.4281428571428 15.713999999999999 l0 10 l-4.2857 4.2857 l4.2857 6.5714 l0 3.4286 l-6.8571 0 l-5.9429 -9.7143 l-5.4857 0 l0 9.7143 l-7.4286 0 l0 -28.571 l21.429 0 z M458.0001428571428 24 l0 -6.2857 l-10.857 0 l0 6.2857 l10.857 0 z M489.1427142857142 17.714 l-10.571 0 l0 4.8571 l14 0 l4.2857 4.2857 l0 8.8571 l-4.2857 4.2857 l-17.143 0 l-4.2857 -4.2857 l0 -4.2857 l5.4286 0 l2.2857 2.2857 l10.571 0 l0 -4.8571 l-14 0 l-4.2857 -4.2857 l0 -8.8571 l4.2857 -4.2857 l17.143 0 l4.2857 4.2857 l0 4.2857 l-5.4286 0 z"></path></g><g id="SvgjsG2416" transform="matrix(1.037033403406722,0,0,1.037033403406722,117.03729805769859,10.148879709283786)" fill="#e9c79e"><path d="M20.857 17.714 l-10.571 0 l0 4.8571 l14 0 l4.2857 4.2857 l0 8.8571 l-4.2857 4.2857 l-17.143 0 l-4.2857 -4.2857 l0 -4.2857 l5.4286 0 l2.2857 2.2857 l10.571 0 l0 -4.8571 l-14 0 l-4.2857 -4.2857 l0 -8.8571 l4.2857 -4.2857 l17.143 0 l4.2857 4.2857 l0 4.2857 l-5.4286 0 z M58.57157142857143 17.714 l-16.857 0 l0 4.8571 l14.571 0 l0 6.2857 l-14.571 0 l0 4.8571 l16.857 0 l0 6.2857 l-20 0 l-4.2857 -4.2857 l0 -24.286 l24.286 0 l0 6.2857 z M89.99957142857143 15.713999999999999 l0 10 l-4.2857 4.2857 l4.2857 6.5714 l0 3.4286 l-6.8571 0 l-5.9429 -9.7143 l-5.4857 0 l0 9.7143 l-7.4286 0 l0 -28.571 l21.429 0 z M82.57157142857143 24 l0 -6.2857 l-10.857 0 l0 6.2857 l10.857 0 z M114.28614285714286 11.428999999999998 l6.8571 0 l0 3.4286 l-9.5429 25.143 l-7.7143 0 l-9.6 -25.143 l0 -3.4286 l6.8571 0 l6.5714 18.571 z M124.57142857142857 40 l0 -5.7143 l2.2857 0 l0 -17.143 l-2.2857 0 l0 -5.7143 l12 0 l0 5.7143 l-2.2857 0 l0 17.143 l2.2857 0 l0 5.7143 l-12 0 z M158.00042857142856 17.714 l-9.1429 0 l0 16 l9.1429 0 l2.2857 -2.2857 l5.4286 0 l0 4.2857 l-4.2857 4.2857 l-15.714 0 l-4.2857 -4.2857 l0 -20 l4.2857 -4.2857 l15.714 0 l4.2857 4.2857 l0 4.2857 l-5.4286 0 z M195.71442857142856 17.714 l-16.857 0 l0 4.8571 l14.571 0 l0 6.2857 l-14.571 0 l0 4.8571 l16.857 0 l0 6.2857 l-20 0 l-4.2857 -4.2857 l0 -24.286 l24.286 0 l0 6.2857 z"></path></g></svg>